<svg width="30" height="30" viewBox="0 0 30 30" fill="none" xmlns="http://www.w3.org/2000/svg">
<path d="M6 13.3508C6 17.4031 9.29843 20.7016 13.3508 20.7016C14.8586 20.7016 16.178 20.2304 17.3089 19.5707L21.5497 23.8115C21.644 23.9058 21.8325 24 21.9267 24C22.0209 24 22.2094 23.9058 22.3037 23.8115L23.8115 22.3037C23.9058 22.2094 24 22.1152 24 21.9267C24 21.7382 23.9058 21.644 23.8115 21.5497L19.5707 17.3089C20.3246 16.178 20.7016 14.7644 20.7016 13.3508C20.7016 9.29843 17.4031 6 13.3508 6C9.29843 6 6 9.29843 6 13.3508ZM19.6649 20.4188L20.4188 19.6649L22.6806 21.9267L21.9267 22.6806L19.6649 20.4188ZM18.2513 18.911C18.534 18.7225 18.7225 18.4398 19.0052 18.1571L19.7592 18.911L18.911 19.6649L18.2513 18.911ZM7.03665 13.3508C7.03665 9.86387 9.86387 7.03665 13.3508 7.03665C16.8377 7.03665 19.6649 9.86387 19.6649 13.3508C19.6649 16.8377 16.8377 19.6649 13.3508 19.6649C9.86387 19.6649 7.03665 16.8377 7.03665 13.3508Z" fill="#050607"/>
</svg>
