<svg width="30" height="30" fill="none" xmlns="http://www.w3.org/2000/svg"><path d="M6 13.35c0 4.053 3.298 7.352 7.35 7.352 1.509 0 2.828-.472 3.959-1.131l4.24 4.24c.095.095.284.189.378.189.094 0 .282-.094.377-.189l1.508-1.507c.094-.095.188-.189.188-.377 0-.189-.094-.283-.189-.377l-4.24-4.241c.754-1.131 1.13-2.545 1.13-3.958 0-4.053-3.298-7.351-7.35-7.351C9.298 6 6 9.298 6 13.35zm13.665 7.069l.754-.754 2.262 2.262-.754.754-2.262-2.262zM18.25 18.91c.283-.189.471-.471.754-.754l.754.754-.848.754-.66-.754zM7.036 13.35a6.315 6.315 0 1 1 12.629 0 6.315 6.315 0 0 1-12.63 0z" fill="#050607"/></svg>