<svg width="21" height="19" viewBox="0 0 21 19" fill="none" xmlns="http://www.w3.org/2000/svg">
<path d="M6.79253 12.6667H17.9517C18.2428 12.6667 18.4369 12.4656 18.5339 12.164L20.9598 3.31746C21.0568 3.1164 20.9598 2.91534 20.8628 2.71429C20.7657 2.51323 20.5717 2.4127 20.3776 2.4127H5.33699L4.85181 0.402117C4.85181 0.201058 4.5607 0 4.26959 0H0.582217C0.291109 0 0 0.301587 0 0.603175C0 0.904762 0.291109 1.20635 0.582217 1.20635H3.78441C3.88145 1.60847 5.9192 10.9577 6.01624 11.5608C5.33699 11.8624 4.94884 12.5661 4.94884 13.2698C4.94884 14.2751 5.82217 15.1799 6.79253 15.1799H17.9517C18.2428 15.1799 18.5339 14.8783 18.5339 14.5767C18.5339 14.2751 18.2428 13.9735 17.9517 13.9735H6.79253C6.50142 13.9735 6.21031 13.672 6.21031 13.3704C6.11328 12.9683 6.40439 12.6667 6.79253 12.6667ZM19.5043 3.82011L17.3695 11.4603H7.27771L5.6281 3.82011H19.5043Z" fill="#050607"/>
<path d="M6.11331 17.09C6.11331 18.0952 6.98664 19 7.957 19C8.92736 19 9.80069 18.0952 9.80069 17.09C9.80069 16.0847 8.92736 15.1799 7.957 15.1799C6.98664 15.1799 6.11331 16.0847 6.11331 17.09ZM7.957 16.4868C8.24811 16.4868 8.53922 16.7884 8.53922 17.09C8.53922 17.3915 8.24811 17.6931 7.957 17.6931C7.66589 17.6931 7.37478 17.3915 7.37478 17.09C7.37478 16.7884 7.66589 16.4868 7.957 16.4868Z" fill="#050607"/>
<path d="M14.8466 17.09C14.8466 18.0952 15.7199 19 16.6903 19C17.6606 19 18.534 18.0952 18.534 17.09C18.534 16.0847 17.6606 15.1799 16.6903 15.1799C15.7199 15.1799 14.8466 16.0847 14.8466 17.09ZM16.6903 16.4868C16.9814 16.4868 17.2725 16.7884 17.2725 17.09C17.2725 17.3915 16.9814 17.6931 16.6903 17.6931C16.3992 17.6931 16.1081 17.3915 16.1081 17.09C16.1081 16.7884 16.3021 16.4868 16.6903 16.4868Z" fill="#050607"/>
</svg>
